<?xml version="1.0" encoding="iso-8859-1"?>
<!-- Generator: Adobe Illustrator 19.0.0, SVG Export Plug-In . SVG Version: 6.00 Build 0)  -->
<svg version="1.1" id="Capa_1" xmlns="http://www.w3.org/2000/svg" xmlns:xlink="http://www.w3.org/1999/xlink" x="0px" y="0px"
	 viewBox="0 0 438.599 438.599" style="enable-background:new 0 0 438.599 438.599;" xml:space="preserve">
<path style="fill:#007C00;" d="M201.81,232.74c-20.8,0-39.2-12-47.2-31.2l-0.8-0.8c-3.2,0.8-7.2,0.8-11.2,0.8l0,0
	c-28,0-51.2-23.2-51.2-52c0-18.4,9.6-35.2,25.6-44l0.8-0.8c1.6-21.6,16.8-40.8,37.6-46.4c0.8,0,0.8-0.8,0.8-0.8
	c3.2-28,29.6-48,57.6-44.8c17.6,2.4,32.8,12.8,40,28.8l0.8,0.8c6.4-2.4,12.8-4,19.2-4c26.4,0,48.8,20,51.2,46.4v0.8
	c23.2,16,28.8,48.8,12,71.2c-6.4,8.8-14.4,15.2-24.8,18.4c0,0-0.8,0-0.8,0.8c-8,19.2-27.2,32-48,32c-5.6,0-12-0.8-17.6-3.2l0,0
	c0,0-0.8,0-0.8,0.8C237.81,223.14,220.21,232.74,201.81,232.74z"/>
<path style="fill:#119611;" d="M109.81,150.34c0-16,8.8-30.4,22.4-38.4c2.4-1.6,4-4,4.8-7.2c0.8-19.2,14.4-35.2,32.8-40
	c4-0.8,6.4-4,6.4-8c2.4-20,17.6-36,37.6-38.4c-2.4,0-4.8-0.8-7.2-0.8c-22.4,0-41.6,16.8-44,39.2c0,4-3.2,7.2-6.4,8
	c-18.4,4.8-31.2,20.8-32.8,40c0,3.2-1.6,5.6-4.8,7.2c-13.6,8-22.4,22.4-22.4,38.4c0,24.8,20,44.8,44.8,44c1.6,0,4,0,5.6,0
	C125.81,190.34,109.81,171.94,109.81,150.34z"/>
<g>
	<path style="fill:#035E03;" d="M321.81,91.94c-2.4-1.6-3.2-4-4-6.4c-2.4-24.8-24-42.4-48-40c-4,0-8,1.6-12,2.4
		c16,6.4,27.2,20.8,28.8,37.6c0,2.4,1.6,4.8,4,6.4c20,14.4,25.6,41.6,11.2,62.4c-5.6,8-13.6,13.6-22.4,16.8
		c-2.4,0.8-4.8,2.4-5.6,4.8c-4.8,11.2-14.4,20.8-26.4,24.8h0.8c4.8,1.6,9.6,2.4,15.2,3.2c18.4,0,34.4-11.2,41.6-28
		c0.8-2.4,3.2-4,5.6-4.8c23.2-8,35.2-33.6,27.2-57.6C335.41,104.74,329.81,97.54,321.81,91.94L321.81,91.94z"/>
	<path style="fill:#035E03;" d="M123.41,239.14c-6.4,0-12.8-1.6-18.4-4.8c-4-2.4-7.2-4.8-9.6-8h-0.8c-6.4,4-12.8,5.6-20,5.6
		c-20.8,0-37.6-16.8-37.6-37.6c0-0.8,0-2.4,0-3.2s0-0.8-0.8-0.8c-2.4-0.8-4.8-1.6-7.2-3.2c-18.4-9.6-25.6-32.8-16-51.2
		c7.2-12.8,20-20.8,34.4-20.8c0,0,0.8,0,0.8-0.8c8.8-13.6,24.8-20,40.8-16l0,0h0.8c4-5.6,9.6-10.4,16-12.8l15.2-6.4l-4,16
		c-0.8,2.4-0.8,4-1.6,6.4l-0.8,3.2l-3.2,2.4c-14.4,9.6-23.2,26.4-23.2,44c0,29.6,24,53.6,53.6,53.6c1.6,0,3.2,0,4.8,0l4.8-0.8l2.4,4
		c1.6,3.2,4,6.4,7.2,8.8l11.2,12l-16.8,1.6h-3.2c-1.6,0-4,0-5.6,0h-0.8C140.21,236.74,131.41,239.14,123.41,239.14L123.41,239.14z"
		/>
</g>
<path style="fill:#007C00;" d="M230.61,425.54c-16-1.6-32.8-4-48.8-7.2l-6.4-1.6v-6.4c-1.6-87.2-28.8-136.8-45.6-158.4l-6.4-8.8
	l11.2-3.2c4-0.8,8-3.2,11.2-5.6l2.4-1.6h2.4h3.2c4,0,7.2-0.8,11.2-1.6l4.8-1.6l3.2,4c14.4,16.8,23.2,36.8,26.4,58.4
	c0,0.8,0.8,0.8,0.8,0.8c0.8,0,0.8-0.8,0.8-1.6c-2.4-16.8-8-32.8-16.8-46.4l-9.6-15.2l17.6,3.2c3.2,0.8,6.4,0.8,8.8,0.8
	c16.8,0,32.8-8,43.2-21.6l3.2-4l4.8,0.8l9.6,2.4l-2.4,9.6c-7.2,17.6-12,35.2-12.8,54.4c0,0.8,0.8,0.8,0.8,0.8c0.8,0,0.8,0,0.8-0.8
	l0,0c1.6-20.8,6.4-40.8,15.2-59.2l1.6-4h4.8h0.8l5.6-0.8l3.2,4.8c5.6,8.8,13.6,16,24,18.4c2.4,0.8,4,0.8,6.4,0.8l13.6,1.6l-8,11.2
	c-38.4,54.4-34.4,138.4-32,162.4l0.8,7.2l-7.2,1.6C261.81,422.34,246.61,424.74,230.61,425.54z"/>
<g>
	<path style="fill:#119611;" d="M193.01,242.34h-1.6v0.8L193.01,242.34z"/>
	<path style="fill:#119611;" d="M317.81,237.54c-2.4,0-11.2-4-13.6-4.8c-12-2.4-23.2-8.8-30.4-19.2c-0.8,0-7.2,3.2-8,3.2
		c-2.4,4-4.8,8-6.4,12c7.2,5.6,15.2,9.6,24,12.8c2.4,0.8,5.6,0.8,8,1.6c-40,56-36,140.8-33.6,168c-10.4,2.4-25.6,4.8-36,6.4
		c-2.4,4-5.6,7.2-3.2,7.2c20.8-1.6,42.4-4,63.2-8C279.41,389.54,278.61,293.54,317.81,237.54z"/>
</g>
<path style="fill:#035E03;" d="M313.81,232.74c-11.2,0-22.4-4.8-28.8-13.6l-6.4-8l9.6-4c11.2-5.6,20-14.4,25.6-24.8l1.6-2.4l2.4-0.8
	c27.2-12,39.2-43.2,28-70.4c-3.2-6.4-7.2-12.8-12.8-17.6l-12.8-12l17.6-2.4h4c3.2,0,6.4,0.8,9.6,1.6c14.4,4,24.8,16,27.2,30.4
	c0,0.8,0.8,0.8,0.8,0.8h4c3.2,0,6.4,0.8,9.6,1.6c18.4,4.8,30.4,23.2,27.2,42.4v0.8c12.8,16,10.4,40-5.6,52.8c-5.6,4.8-13.6,8-20.8,8
	h-0.8c-7.2,8.8-18.4,14.4-29.6,14.4c-3.2,0-6.4-0.8-10.4-1.6c-4-0.8-8-3.2-11.2-5.6h-0.8c0,0,0,0-0.8,0
	C333.81,228.74,324.21,232.74,313.81,232.74z"/>
<path style="fill:#1C1211;" d="M396.21,99.14c-3.2-0.8-6.4-1.6-9.6-1.6c-8-23.2-32-36.8-56-31.2c-9.6-22.4-32-36.8-56-36.8
	c-4.8,0-9.6,0.8-14.4,1.6c-18.4-28.8-56-36.8-84.8-19.2c-14.4,9.6-24.8,23.2-28,39.2c-11.2,4-20.8,12-28,20.8
	c-12.8,0-24.8,5.6-33.6,15.2c-16.8-1.6-32.8,4.8-43.2,17.6c-26.4,3.2-44.8,27.2-42.4,53.6c2.4,15.2,11.2,28.8,24,36l3.2,1.6
	c1.6,26.4,24,46.4,50.4,44.8c5.6,0,10.4-1.6,15.2-3.2c2.4,2.4,4.8,4,7.2,5.6c4,2.4,8.8,4,12.8,4.8c7.2,8,52.8,58.4,52,169.6
	c0,4,3.2,8,7.2,8.8c19.2,4,38.4,7.2,57.6,9.6c19.2-1.6,37.6-4.8,56-9.6c4.8-0.8,8-5.6,7.2-10.4c0-1.6-16-125.6,44.8-180.8
	c1.6-0.8,2.4-1.6,4-2.4c2.4,1.6,5.6,2.4,8.8,3.2c17.6,4.8,36-0.8,48-13.6c26.4-4,44-28.8,39.2-55.2c-0.8-6.4-4-12.8-7.2-19.2
	C433.01,126.34,417.81,105.54,396.21,99.14z M121.01,113.54c2.4-1.6,4-4,4.8-7.2c0.8-18.4,14.4-34.4,32-39.2c3.2-0.8,5.6-4,6.4-8
	c2.4-24,24-40.8,48-38.4c15.2,1.6,28,11.2,34.4,25.6c2.4,4,7.2,6.4,12,4.8c22.4-8.8,47.2,1.6,56,24c1.6,4,2.4,8,3.2,12
	c0,2.4,1.6,4.8,4,6.4c19.2,13.6,24,40.8,10.4,60.8c-4.8,7.2-12.8,12.8-20.8,16c-2.4,0.8-4,2.4-5.6,4.8c-6.4,16-22.4,27.2-40,27.2
	c-4.8,0-9.6-0.8-14.4-2.4c-4-1.6-8.8,0-11.2,4c-8,13.6-22.4,22.4-37.6,22.4c-17.6,0-32.8-10.4-40-26.4c-1.6-3.2-4.8-5.6-8-5.6h-1.6
	c-24,4.8-47.2-10.4-52-34.4c-0.8-2.4-0.8-5.6-0.8-8C99.41,135.14,107.41,120.74,121.01,113.54z M109.01,227.14c-3.2-1.6-5.6-4-8-6.4
	c-3.2-3.2-8-4-11.2-1.6c-8.8,5.6-20.8,5.6-29.6,0.8c-10.4-5.6-16-16.8-15.2-28.8c0.8-4-2.4-8-6.4-9.6c-1.6-0.8-4-1.6-5.6-2.4
	c-14.4-8-20-25.6-12-40c4.8-9.6,15.2-15.2,25.6-15.2c3.2,0,5.6-1.6,7.2-4c7.2-10.4,20-16,32-12.8c3.2,0.8,7.2-0.8,9.6-3.2
	c3.2-4.8,8-8,12.8-10.4c-0.8,2.4-1.6,4.8-1.6,7.2c-16.8,11.2-26.4,30.4-26.4,50.4c0,34.4,28,61.6,62.4,61.6c1.6,0,3.2,0,5.6,0
	c2.4,4,4.8,7.2,8,10.4c-2.4,0-4.8,0-7.2,0c-2.4-0.8-4.8,0-7.2,1.6C133.01,231.94,119.41,232.74,109.01,227.14z M275.41,411.14
	c-14.4,3.2-29.6,5.6-44.8,7.2c-16-1.6-31.2-4-47.2-7.2c-1.6-89.6-30.4-140.8-47.2-163.2c4.8-1.6,9.6-3.2,13.6-6.4
	c5.6,0.8,11.2,0,16.8-1.6c12.8,15.2,21.6,34.4,24,54.4c0.8,4.8,4,8,8.8,8h0.8c4.8-0.8,8.8-4.8,8-9.6l0,0
	c-2.4-17.6-8.8-35.2-18.4-49.6c3.2,0.8,7.2,0.8,10.4,0.8c19.2,0,37.6-9.6,49.6-24.8l0,0c-8,18.4-12,37.6-12.8,57.6
	c0,4.8,4,8.8,8.8,9.6l0,0l0,0c4.8,0,8.8-4,9.6-8.8c0,0,0,0,0-0.8c1.6-19.2,6.4-38.4,14.4-56h1.6c6.4,10.4,16.8,18.4,28.8,22.4
	c2.4,0.8,5.6,0.8,8,1.6C269.01,299.14,273.01,383.94,275.41,411.14z M419.41,183.94c-3.2,12-13.6,20.8-26.4,21.6
	c-2.4,0-4.8,1.6-6.4,3.2c-9.6,12.8-27.2,15.2-40.8,6.4c-3.2-2.4-8.8-2.4-12,0.8c-11.2,11.2-29.6,11.2-41.6,0
	c-0.8-0.8-1.6-1.6-1.6-2.4c12.8-6.4,23.2-16,29.6-28.8c31.2-13.6,45.6-49.6,32-80.8c-3.2-8-8.8-15.2-15.2-20.8c4-0.8,7.2,0,11.2,0.8
	c11.2,3.2,19.2,12.8,21.6,24c0.8,4.8,4.8,8,9.6,8c16-1.6,30.4,10.4,32,26.4c0,2.4,0,5.6,0,8c-0.8,2.4,0,4.8,1.6,7.2
	C420.21,164.74,421.81,174.34,419.41,183.94z"/>
<g>
</g>
<g>
</g>
<g>
</g>
<g>
</g>
<g>
</g>
<g>
</g>
<g>
</g>
<g>
</g>
<g>
</g>
<g>
</g>
<g>
</g>
<g>
</g>
<g>
</g>
<g>
</g>
<g>
</g>
</svg>
